<svg xmlns="http://www.w3.org/2000/svg" xmlns:xlink="http://www.w3.org/1999/xlink" viewBox="0 0 191.85 121.57"><defs><style>.cls-1{fill:url(#linear-gradient);}.cls-2{fill:url(#linear-gradient-2);}.cls-3{fill:url(#linear-gradient-3);}.cls-4{fill:url(#linear-gradient-4);}.cls-5{fill:url(#linear-gradient-5);}</style><linearGradient id="linear-gradient" x1="84.93" y1="93.5" x2="114.44" y2="141.23" gradientUnits="userSpaceOnUse"><stop offset="0" stop-color="#7e00bf"/><stop offset="0.34" stop-color="#b41584"/><stop offset="0.64" stop-color="#dd2558"/><stop offset="0.87" stop-color="#f62f3d"/><stop offset="1" stop-color="#f33"/></linearGradient><linearGradient id="linear-gradient-2" x1="55.79" y1="-15.16" x2="126.76" y2="55.82" gradientUnits="userSpaceOnUse"><stop offset="0" stop-color="#ffab17"/><stop offset="0.28" stop-color="#ff8121"/><stop offset="0.6" stop-color="#ff572b"/><stop offset="0.85" stop-color="#ff3d31"/><stop offset="1" stop-color="#f33"/></linearGradient><linearGradient id="linear-gradient-3" x1="16.3" y1="38.88" x2="116.62" y2="139.2" xlink:href="#linear-gradient-2"/><linearGradient id="linear-gradient-4" x1="81.75" y1="-26.57" x2="182.07" y2="73.75" xlink:href="#linear-gradient-2"/><linearGradient id="linear-gradient-5" x1="39.81" y1="0.82" x2="110.78" y2="71.79" xlink:href="#linear-gradient-2"/></defs><g id="Layer_2" data-name="Layer 2"><g id="OBJECTS"><ellipse class="cls-1" cx="95.93" cy="111.28" rx="39.19" ry="10.29"/><path class="cls-2" d="M185.65,13.83h0a21.16,21.16,0,0,0-29.92,0l-9.39,9.39c-5.83,5.83-4.7,14.36-2.37,20.07a6.81,6.81,0,0,1-1.8,7.66l-42.51,38L57.52,51.15a7.58,7.58,0,0,1-2-8.41c2.21-5.7,3.15-14-2.54-19.65L30.81.89A3,3,0,0,0,26.39,1a3.13,3.13,0,0,0,.25,4.23L43.7,22.33a3,3,0,0,1,.1,4.17,3.14,3.14,0,0,1-4.49,0l-17-17.06a3,3,0,0,0-2.14-.88,3,3,0,0,0-2,.79,3.14,3.14,0,0,0,0,4.49l17,17a3,3,0,1,1-4.27,4.27l-17-17a3.14,3.14,0,0,0-4.49,0,3,3,0,0,0-.79,2,3,3,0,0,0,.88,2.14L26.49,39.31a3.14,3.14,0,0,1,0,4.49,3,3,0,0,1-4.17-.1L5.27,26.64A3.13,3.13,0,0,0,1,26.39a3,3,0,0,0-.15,4.42L23.09,53c5.69,5.69,14,4.75,19.65,2.54a7.58,7.58,0,0,1,8.41,2L100,111.11l48.53-53.83a6.84,6.84,0,0,1,7.66-1.78c5.7,2.34,14.25,3.48,20.09-2.36l9.38-9.39A21.14,21.14,0,0,0,185.65,13.83Z"/><path class="cls-3" d="M29.86,56.79a19.8,19.8,0,0,0,8.7,0Z"/><path class="cls-4" d="M160.25,56.79a19.9,19.9,0,0,0,9.73,0Z"/><path class="cls-5" d="M99.65,24.72a34,34,0,0,0-34,34c0,18.78,34,52,34,52s34-33.18,34-52A34,34,0,0,0,99.65,24.72Zm0,43.5A12.15,12.15,0,1,1,111.8,56.07,12.15,12.15,0,0,1,99.65,68.22Z"/></g></g></svg>